<svg width="23" height="25" viewBox="0 0 23 25" fill="none" xmlns="http://www.w3.org/2000/svg">
<path d="M22.9586 8.50057C22.9086 8.73592 22.8099 8.95943 22.6683 9.15809C22.5267 9.35675 22.345 9.52658 22.1337 9.65768L13.7416 14.9042C13.6606 15.8262 13.2675 19.1948 11.7884 20.4432C11.1384 21.0019 10.3977 21.4568 9.59509 21.7902L9.99723 22.091C10.0895 22.16 10.152 22.2589 10.1728 22.3688C10.1937 22.4788 10.1714 22.5922 10.1103 22.6876L8.76829 24.7809C8.72548 24.8479 8.66529 24.9032 8.59352 24.9416C8.52174 24.9799 8.44079 25.0001 8.35848 25C8.27061 25.0002 8.18445 24.9769 8.10972 24.9329C8.00125 24.8699 7.92351 24.7684 7.89358 24.6508C7.86365 24.5332 7.88398 24.4091 7.95011 24.3057L9.06881 22.5584L2.25883 17.463L0.842481 19.0218C0.801284 19.0672 0.751106 19.1044 0.694811 19.1313C0.638517 19.1582 0.577208 19.1743 0.514385 19.1787C0.451563 19.183 0.388457 19.1755 0.32867 19.1566C0.268884 19.1378 0.213588 19.1078 0.16594 19.0686C0.118292 19.0294 0.0792246 18.9816 0.0509687 18.928C0.0227127 18.8744 0.00582177 18.816 0.00125973 18.7562C-0.0033023 18.6963 0.00455401 18.6362 0.0243804 18.5793C0.0442068 18.5224 0.075615 18.4697 0.116811 18.4243L1.83225 16.5355C1.91287 16.4467 2.02635 16.3908 2.14909 16.3796C2.27183 16.3684 2.39439 16.4027 2.49129 16.4753L3.49161 17.2234C3.84798 16.7589 4.06787 16.2123 4.1286 15.64C4.13723 15.4574 4.13675 15.236 4.13675 14.9881C4.13675 13.6485 4.14011 11.6807 5.24587 10.4971L5.0968 10.2803L5.09105 10.2739V10.2689L4.52882 9.45319C4.25032 9.04882 4.15164 8.55576 4.25444 8.08219C4.35724 7.60862 4.65312 7.19323 5.07715 6.92717L15.6837 0.300379C15.894 0.168519 16.1295 0.0774643 16.3767 0.0324333C16.624 -0.0125978 16.8781 -0.01072 17.1246 0.0379587C17.3711 0.0866375 17.6051 0.18116 17.8132 0.316111C18.0212 0.451061 18.1993 0.623786 18.3372 0.824388L18.9229 1.67476C18.9229 1.67476 18.9277 1.67841 18.9291 1.68069C18.9305 1.68298 18.9291 1.68572 18.932 1.688L22.684 7.13212C22.8229 7.33177 22.9188 7.55571 22.9661 7.79094C23.0134 8.02616 23.0112 8.26799 22.9596 8.50239L22.9586 8.50057ZM5.32687 8.94926L5.63123 9.39111L17.8617 1.79709L17.5353 1.32329C17.4666 1.22306 17.3778 1.13674 17.2739 1.0693C17.1701 1.00187 17.0533 0.954637 16.9302 0.930332C16.8071 0.906026 16.6802 0.905124 16.5568 0.927676C16.4334 0.950228 16.3158 0.99579 16.211 1.06174L5.60439 7.68991C5.49923 7.75566 5.40876 7.84057 5.33818 7.93974C5.2676 8.03891 5.21831 8.1504 5.19314 8.26778C5.16668 8.38448 5.16497 8.50503 5.1881 8.62237C5.21122 8.73971 5.25873 8.85147 5.32783 8.95109L5.32687 8.94926ZM12.7053 15.5523L11.5267 16.2895C11.4647 16.3267 11.4007 16.3606 11.335 16.3913C11.2597 17.2754 10.8327 18.3371 9.02855 19.3231C8.97398 19.3531 8.91374 19.3725 8.85128 19.3803C8.78882 19.3881 8.72536 19.3841 8.66451 19.3686C8.60367 19.353 8.54664 19.3262 8.49668 19.2896C8.44672 19.2531 8.40481 19.2075 8.37334 19.1556C8.34187 19.1036 8.32145 19.0462 8.31326 18.9867C8.30507 18.9273 8.30926 18.8668 8.32559 18.8089C8.34193 18.7509 8.37008 18.6966 8.40846 18.6491C8.44683 18.6015 8.49467 18.5616 8.54924 18.5316C10.4909 17.4703 10.4267 16.4602 10.3706 15.5678C10.3177 15.3213 10.3179 15.0671 10.371 14.8206C10.4241 14.5741 10.5292 14.3404 10.6798 14.1337C11.0704 13.7082 11.6216 13.0793 12.0582 12.5767C12.2185 12.3908 12.3247 12.1681 12.3662 11.9308C12.4077 11.6935 12.383 11.45 12.2945 11.2247L12.2524 11.1183C12.2245 11.0478 12.1788 10.985 12.1193 10.9354C12.0598 10.8858 11.9883 10.851 11.9113 10.8341C11.8342 10.8172 11.7539 10.8187 11.6776 10.8385C11.6013 10.8583 11.5314 10.8958 11.474 10.9476L7.24314 14.7654C7.15085 14.8487 7.02757 14.8938 6.90042 14.8906C6.77328 14.8873 6.65268 14.8362 6.56516 14.7483C6.47763 14.6604 6.43036 14.543 6.43373 14.4219C6.4371 14.3008 6.49084 14.186 6.58313 14.1026L7.29059 13.4636L5.79994 11.3009C5.09776 12.2645 5.09584 13.8726 5.09536 14.9881C5.09536 15.2511 5.09536 15.4861 5.08626 15.6797C5.01494 16.4426 4.72423 17.1721 4.24603 17.788L8.70741 21.1261C9.61658 20.8446 10.4506 20.3783 11.1519 19.7595C12.0587 18.9954 12.5169 16.9335 12.7053 15.5523ZM21.8831 7.63285L18.3875 2.56028L6.15799 10.1561L7.99756 12.8259L10.814 10.2826C10.9862 10.127 11.1963 10.0144 11.4253 9.9549C11.6544 9.89542 11.8953 9.89088 12.1267 9.94169C12.3581 9.9925 12.5726 10.0971 12.7512 10.2461C12.9298 10.3951 13.0668 10.5839 13.1501 10.7956L13.1928 10.9043C13.3401 11.2799 13.3811 11.6858 13.3118 12.0813C13.2425 12.4768 13.0653 12.848 12.7978 13.1578C12.3549 13.6676 11.7975 14.3048 11.4016 14.7348C11.3072 14.9188 11.2776 15.1269 11.3172 15.3282L21.6079 8.89221C21.7133 8.82686 21.804 8.74233 21.8749 8.64346C21.9458 8.54459 21.9955 8.43334 22.021 8.31613C22.0466 8.19891 22.0476 8.07803 22.0239 7.96045C22.0002 7.84287 21.9524 7.73092 21.8831 7.63102V7.63285ZM17.8631 4.33954L15.8438 5.59524C15.7373 5.66134 15.6627 5.76503 15.6364 5.8835C15.6102 6.00197 15.6344 6.12552 15.7038 6.22697C15.7733 6.32842 15.8821 6.39946 16.0065 6.42445C16.1309 6.44945 16.2607 6.42635 16.3672 6.36026L18.3865 5.10592C18.493 5.03982 18.5676 4.93613 18.5939 4.81766C18.6201 4.69919 18.5959 4.57564 18.5265 4.47419C18.4571 4.37274 18.3482 4.30171 18.2238 4.27671C18.0994 4.25172 17.9696 4.27481 17.8631 4.34091V4.33954Z" fill="black"/>
</svg>
